<?xml version="1.0" encoding="UTF-8"?>
<svg id="Lag_1" xmlns="http://www.w3.org/2000/svg" version="1.1" viewBox="0 0 160 160">
  <!-- Generator: Adobe Illustrator 30.1.0, SVG Export Plug-In . SVG Version: 2.1.1 Build 136)  -->
  <defs>
    <style>
      .st0 {
        display: none;
      }

      .st0, .st1, .st2 {
        fill: none;
        stroke-miterlimit: 10;
      }

      .st0, .st2 {
        stroke: #39b54a;
      }

      .st3 {
        fill: #39b54a;
      }

      .st1 {
        stroke: #000;
      }
    </style>
  </defs>
  <g>
    <path d="M37.84,81.08c-1.09-.22-2.1,0-3.01.64-.4.28-.72.61-.96.97-.24.36-.39.73-.46,1.11-.07.38-.05.75.04,1.12.1.37.28.72.55,1.03.27.32.59.57.95.74.36.17.73.28,1.13.31.39.03.79,0,1.19-.11.4-.11.78-.29,1.14-.54.79-.56,1.29-1.35,1.51-2.39.63.88,1.26,1.77,1.87,2.67-.07.08-.13.16-.2.25-.29.37-.58.69-.86.97-.28.28-.57.52-.88.74-.63.45-1.31.78-2.05.99-.74.21-1.48.3-2.24.26-.75-.04-1.49-.2-2.21-.5-.72-.29-1.36-.74-1.92-1.33-.55-.6-.93-1.26-1.13-1.98-.19-.73-.22-1.46-.08-2.21.14-.75.45-1.48.92-2.19.47-.71,1.07-1.33,1.81-1.86.42-.3.86-.56,1.33-.77.47-.21.99-.4,1.56-.55.67.87,1.33,1.75,1.99,2.63Z"/>
    <path d="M40.99,83.08c-.3-.44-.49-.91-.54-1.43-.06-.51,0-1.03.2-1.54.19-.51.5-1.01.92-1.49.43-.48.97-.9,1.62-1.25.64-.35,1.29-.58,1.94-.71.65-.12,1.27-.13,1.84-.03.58.1,1.09.31,1.54.62.45.31.8.72,1.07,1.23.26.51.39,1.03.38,1.55,0,.52-.12,1.03-.34,1.51-.22.49-.54.94-.97,1.37-.43.43-.93.8-1.52,1.12-.58.31-1.16.53-1.75.65-.58.12-1.14.14-1.68.06-.54-.08-1.04-.25-1.51-.53-.47-.28-.87-.65-1.21-1.14ZM43.58,81.55c.13.21.29.37.49.49.19.12.4.21.62.26.22.05.45.06.68.02.24-.04.46-.11.68-.23.22-.12.4-.27.56-.44.16-.18.27-.37.34-.57.07-.2.1-.42.09-.64-.01-.22-.07-.43-.19-.64-.11-.2-.26-.36-.45-.49-.19-.13-.4-.22-.62-.27-.22-.05-.46-.06-.71-.02-.25.04-.49.12-.71.24-.23.12-.42.28-.58.46-.16.18-.27.38-.33.59-.06.21-.09.42-.07.64.02.22.09.42.21.61Z"/>
    <path d="M49.46,74.58c.92-.41,1.85-.79,2.78-1.17.13.28.26.55.39.83.2-.53.47-.94.81-1.22.34-.28.77-.52,1.31-.72.57-.2,1.09-.3,1.56-.28.47.01.9.12,1.3.31.32.15.58.36.77.61.19.25.35.56.49.92.53,1.43,1.05,2.87,1.55,4.31-.89.27-1.77.56-2.64.87-.44-1.13-.88-2.26-1.34-3.38-.13-.33-.27-.59-.41-.77-.14-.18-.31-.31-.5-.38-.17-.06-.33-.08-.51-.07-.17.01-.34.05-.52.12-.47.18-.78.43-.92.76-.14.33-.11.71.09,1.15.53,1.17,1.04,2.35,1.55,3.53-.86.34-1.71.69-2.55,1.05-1.02-2.17-2.09-4.33-3.19-6.47Z"/>
    <path d="M59.9,70.8c.98-.28,1.96-.54,2.95-.79.09.29.18.58.28.87.27-.5.6-.87.98-1.11.38-.24.85-.42,1.41-.54.6-.13,1.14-.15,1.61-.07.47.08.89.24,1.27.47.3.19.53.43.69.71.16.28.28.6.37.98.34,1.49.67,2.99.97,4.48-.93.15-1.86.32-2.78.51-.29-1.18-.58-2.36-.89-3.53-.09-.34-.19-.62-.31-.82-.12-.2-.27-.35-.45-.44-.16-.08-.33-.13-.5-.14-.18,0-.35,0-.54.05-.5.11-.84.33-1.03.64-.19.31-.21.69-.07,1.15.37,1.23.73,2.46,1.07,3.7-.91.22-1.81.46-2.71.71-.73-2.29-1.5-4.57-2.32-6.84Z"/>
    <path d="M74.4,72.07c.18,1.09.85,1.56,2.03,1.46.63-.05,1.09-.31,1.36-.78.95-.06,1.91-.11,2.87-.13-.45,1.67-1.79,2.52-4.01,2.7-.68.06-1.32.02-1.91-.1-.59-.12-1.12-.32-1.58-.6-.46-.28-.85-.63-1.16-1.06-.31-.43-.53-.93-.64-1.5-.12-.59-.12-1.14,0-1.64.12-.51.36-.95.71-1.34.35-.39.8-.71,1.37-.95.56-.25,1.23-.41,1.99-.48.75-.07,1.44-.03,2.06.12.63.14,1.17.38,1.62.71.45.33.82.74,1.08,1.23.27.49.43,1.05.48,1.68,0,.09.02.18.02.27-2.11.06-4.21.2-6.28.42ZM77.69,70.31c-.15-.35-.39-.62-.74-.81-.35-.19-.75-.27-1.2-.23-.48.04-.84.18-1.11.41-.26.23-.4.54-.41.92,1.15-.12,2.3-.22,3.46-.29Z"/>
    <path d="M88.91,70.14c-.54-.34-1.09-.53-1.64-.55-.3-.02-.58.01-.83.09-.25.07-.48.19-.67.33-.19.15-.33.33-.43.54-.1.21-.14.44-.13.71,0,.25.07.49.18.7.11.21.26.4.45.56.19.16.41.29.66.39.26.1.53.15.82.17.56.03,1.09-.1,1.58-.39,0,.72-.02,1.45-.04,2.17-.73.22-1.42.31-2.07.28-.6-.03-1.18-.14-1.73-.33-.55-.19-1.04-.46-1.47-.79-.43-.34-.79-.73-1.07-1.2-.28-.46-.45-.98-.49-1.55-.04-.57.04-1.1.25-1.57.21-.48.52-.88.94-1.23.41-.34.92-.6,1.53-.78.6-.18,1.26-.26,1.97-.22.78.04,1.5.21,2.16.52,0,.73.01,1.45.02,2.17Z"/>
    <path class="st3" d="M92.88,63.75c-.03,3.9-.17,7.78-.43,11.64-.6-.07-1.2-.14-1.79-.2.17-3.87.23-7.75.18-11.65.68.06,1.36.13,2.04.2Z"/>
    <path d="M97.64,72.97c-.12,1.1.43,1.75,1.65,2,.66.14,1.18.03,1.59-.34.98.22,1.96.47,2.95.73-.9,1.47-2.5,1.89-4.81,1.4-.71-.15-1.34-.37-1.91-.66-.57-.29-1.05-.64-1.44-1.04-.39-.41-.69-.86-.88-1.36-.2-.5-.28-1.05-.24-1.63.04-.6.19-1.13.45-1.58.26-.45.62-.81,1.08-1.08.46-.27,1.01-.44,1.65-.52.64-.07,1.35-.03,2.14.12.77.16,1.46.4,2.05.72.59.32,1.08.71,1.45,1.16.37.45.62.95.76,1.51.14.55.15,1.14.03,1.76-.02.09-.03.18-.05.26-2.16-.58-4.32-1.07-6.48-1.46ZM101.47,72.25c-.05-.38-.23-.71-.53-1-.3-.29-.68-.48-1.15-.58-.49-.1-.9-.07-1.23.07-.33.15-.55.4-.67.76,1.19.22,2.39.46,3.58.74Z"/>
    <path d="M114.76,68.92c1.12.42,2.24.86,3.35,1.33-1.06,3.79-2.22,7.54-3.48,11.23-.98-.43-1.96-.83-2.95-1.22.08-.26.16-.51.23-.77-.83.41-1.78.42-2.85.04-.61-.21-1.14-.5-1.6-.86-.47-.36-.85-.77-1.16-1.23-.31-.46-.52-.95-.65-1.47-.12-.53-.13-1.06-.03-1.59.1-.51.3-.96.6-1.36.3-.4.69-.71,1.15-.93.47-.22,1-.35,1.6-.37.6-.02,1.25.08,1.92.31,1.14.39,2,1.04,2.57,1.94.45-1.68.88-3.37,1.29-5.06ZM108.83,75.37c-.05.23-.05.46,0,.69.05.23.15.45.29.65.14.21.31.39.53.56.22.17.47.3.74.4.27.1.53.15.79.16.26,0,.5-.03.71-.11.21-.08.4-.19.56-.34.16-.15.27-.33.33-.55.06-.22.07-.45.01-.68-.05-.24-.15-.46-.29-.67-.14-.21-.32-.41-.55-.58-.23-.17-.48-.31-.75-.41-.28-.1-.55-.15-.82-.15-.27,0-.51.04-.72.13-.21.09-.4.21-.55.36-.15.15-.25.34-.31.56Z"/>
  </g>
  <path class="st1" d="M36.74,93.18c3.87-3.3,8.12-6.17,12.63-8.53,5.34-2.8,10.91-5.13,16.82-6.34s11.94-1.67,17.96-1.98c2.47-.13,4.09-.39,6.56-.26,2.96.16,5.84.98,8.7,1.78,1.64.46,3.27.93,4.91,1.39,5.77,1.63,11.66,3.32,16.54,6.79"/>
  <g>
    <path d="M60.9,84.39c-.43-.07-.84-.08-1.23-.03-.38.05-.73.16-1.04.31-.39.2-.68.43-.85.71-.17.28-.19.54-.06.78.09.17.22.27.4.31.18.04.38.06.62.03.24-.02.49-.06.77-.13.28-.06.55-.12.82-.17,1.1-.19,1.97-.14,2.61.13.64.27,1.11.78,1.42,1.52.21.5.3.99.29,1.47-.01.48-.13.94-.35,1.38-.22.44-.54.85-.96,1.24-.42.39-.93.74-1.54,1.05-1.27.65-2.61.96-4.09.94-.02-.85-.02-1.71,0-2.58.59.08,1.12.09,1.6.03.48-.06.91-.19,1.3-.39.44-.23.73-.49.86-.78.13-.29.14-.56.02-.79-.07-.14-.16-.25-.27-.33-.11-.08-.25-.13-.43-.15-.18-.02-.39-.02-.65.02-.25.03-.56.09-.91.16-.42.09-.83.18-1.25.25-.41.08-.81.1-1.2.06-.39-.04-.75-.15-1.09-.34-.34-.19-.65-.51-.92-.96-.27-.45-.42-.91-.45-1.39-.03-.48.05-.95.25-1.41.2-.46.51-.91.94-1.34.43-.43.97-.81,1.61-1.13.6-.3,1.26-.55,1.99-.72.72-.18,1.44-.27,2.16-.27-.14.84-.27,1.67-.38,2.51Z"/>
    <path d="M68.53,84.44c.51,1.61,1.02,3.22,1.54,4.83-.85.27-1.7.56-2.54.88-.59-1.58-1.18-3.17-1.77-4.75-.3.11-.61.23-.91.35-.26-.66-.51-1.31-.77-1.97.31-.12.63-.24.94-.36-.25-.67-.5-1.35-.75-2.02.98-.37,1.98-.71,2.97-1.03.22.68.44,1.37.65,2.05.55-.17,1.1-.34,1.65-.5.19.68.39,1.35.58,2.03-.53.15-1.06.31-1.59.48Z"/>
    <path d="M77.25,80.24c1-.15,2-.28,3-.38.24,2.38.49,4.76.73,7.14-.88.09-1.77.2-2.65.34-.04-.26-.08-.53-.12-.79-.47.76-1.16,1.22-2.11,1.4-.54.11-1.05.12-1.54.03-.49-.08-.95-.25-1.37-.5-.42-.25-.79-.57-1.1-.97-.31-.4-.54-.86-.69-1.4-.13-.49-.16-.99-.09-1.49.08-.5.26-.96.53-1.39.28-.42.65-.8,1.12-1.11.46-.31,1.01-.53,1.63-.65,1.05-.21,1.98-.04,2.76.47-.04-.24-.07-.47-.11-.71ZM74.27,84.41c.05.23.14.43.27.61.13.18.29.32.48.44.19.11.39.19.62.23.23.04.47.04.72,0,.24-.04.46-.13.66-.24.2-.12.37-.26.5-.44.13-.17.23-.36.3-.57.07-.21.08-.42.05-.64-.03-.22-.11-.42-.24-.61-.13-.18-.29-.34-.47-.46-.19-.12-.4-.2-.64-.25-.24-.04-.49-.04-.74,0-.26.05-.5.14-.71.26-.21.13-.38.28-.51.46-.13.18-.22.37-.28.58-.05.21-.06.42,0,.64Z"/>
    <path d="M82.28,79.68c1-.07,2-.11,3-.13,0,.39.02.78.02,1.18.31-.44.69-.77,1.15-1,.46-.23,1.01-.34,1.63-.32.08,0,.16,0,.26,0,.09,0,.2.02.32.04-.03.81-.06,1.61-.09,2.42-.38-.18-.79-.28-1.24-.28-.67,0-1.18.17-1.51.52-.33.35-.48.87-.47,1.54.02,1.03.04,2.05.06,3.08-.88.02-1.77.06-2.65.12-.16-2.39-.33-4.78-.49-7.16Z"/>
    <path class="st3" d="M91.8,81.73c-.16,1.73-.31,3.47-.47,5.2-.53-.05-1.07-.09-1.6-.12.1-1.74.21-3.48.31-5.21-.25-.01-.5-.03-.75-.04.02-.48.05-.96.07-1.43.26.01.51.03.77.04.05-.81.1-1.62.15-2.44.63.04,1.25.08,1.87.14-.07.81-.15,1.62-.22,2.43.47.04.93.09,1.4.14-.05.48-.11.95-.16,1.43-.45-.05-.91-.1-1.37-.14Z"/>
    <path d="M96.48,84.43c-.19,1.08.26,1.7,1.35,1.93.58.12,1.07,0,1.47-.36.87.2,1.74.43,2.6.67-.98,1.43-2.43,1.87-4.45,1.45-.62-.13-1.17-.32-1.66-.59-.49-.27-.9-.6-1.23-.98-.33-.39-.57-.83-.72-1.32-.15-.49-.19-1.02-.12-1.6.07-.59.25-1.11.52-1.56.27-.45.64-.81,1.09-1.09.45-.27.98-.45,1.58-.53.6-.08,1.27-.05,1.99.1.71.15,1.33.38,1.85.69.52.31.93.69,1.22,1.12.29.43.47.92.53,1.46.06.54,0,1.1-.17,1.71-.02.09-.05.17-.07.26-1.91-.55-3.84-.99-5.78-1.33ZM100.05,83.67c-.01-.37-.14-.69-.39-.97-.25-.28-.59-.46-1.01-.55-.45-.09-.83-.06-1.15.09-.32.15-.55.4-.69.76,1.08.19,2.16.42,3.24.67Z"/>
    <path d="M105.01,82.4c.96.31,1.92.63,2.87.99-.14.37-.27.73-.41,1.1.45-.29.94-.46,1.46-.5.52-.04,1.08.06,1.66.31.07.03.15.07.24.1.09.04.18.09.29.16-.32.74-.65,1.48-.97,2.22-.29-.31-.65-.55-1.07-.73-.63-.26-1.18-.28-1.62-.08-.44.21-.78.63-1.01,1.26-.36.96-.72,1.92-1.07,2.89-.84-.31-1.69-.6-2.54-.87.72-2.28,1.45-4.56,2.17-6.85Z"/>
    <path d="M116.49,89.5c-.36-.49-.77-.86-1.24-1.12-.24-.13-.46-.2-.66-.2-.2,0-.33.07-.4.21-.04.07-.06.14-.06.2,0,.06.03.13.09.21.06.08.16.19.3.3.14.12.33.27.56.47.65.52,1.05,1.05,1.21,1.56.16.51.09,1.01-.21,1.49-.22.36-.5.63-.83.82-.33.19-.7.3-1.1.33-.4.03-.82,0-1.28-.12-.46-.11-.92-.29-1.4-.54-.92-.48-1.71-1.17-2.41-2.09.55-.41,1.11-.81,1.67-1.2.51.78,1.06,1.33,1.68,1.65.23.12.44.17.63.16.19-.01.33-.08.41-.22.04-.08.07-.16.08-.22,0-.07-.02-.14-.07-.23-.05-.08-.14-.18-.26-.3-.13-.11-.29-.25-.51-.42-.71-.55-1.17-1.03-1.36-1.47-.19-.44-.17-.9.06-1.4.17-.36.4-.66.7-.87.3-.22.65-.35,1.05-.41.4-.05.85-.03,1.33.09.49.11.99.31,1.51.59.85.47,1.6,1.07,2.22,1.81-.58.29-1.16.59-1.73.89Z"/>
  </g>
  <path class="st0" d="M90.04,79.79c-.46,0-.92-.16-1.28-.46-.16-.13-.29-.29-.44-.45-.27-.29-.56-.57-.87-.82-.13-.11-.28-.22-.45-.23-.11.61.06,1.26.47,1.73.2.23.45.42.71.59.45.3.92.55,1.41.77"/>
  <path class="st0" d="M87.44,78.87c.43.48.94.88,1.5,1.18"/>
  <path class="st0" d="M90.22,81.26c-.36,0-.73,0-1.08-.1-.15-.05-.3-.12-.44-.2-.3-.17-.58-.4-.8-.67s-.46-.58-.55-.93c0-.03-.02-.07-.05-.07"/>
  <path class="st0" d="M92.59,79.95c.27.08.56.11.84.12.45.03.92.03,1.31-.18.17-.09.32-.22.47-.34.47-.34,1.04-.55,1.62-.58-.27.59-.81,1.01-1.22,1.53-.14.17-.26.36-.45.48-.13.08-.28.13-.42.2-.13.06-.25.14-.38.2-.31.14-.67.17-1.01.2-.32.02-.65.05-.94-.08"/>
  <path class="st0" d="M95.43,80.23c-.07-.01-.13.02-.19.05-.35.21-.7.45-1.07.62s-.79.29-1.2.24"/>
  <path class="st2" d="M92.25,65.23c.88.12,1.78-.06,2.64-.27.5-.12.99-.26,1.45-.5s.86-.58,1.1-1.04c-.59.03-1.18.06-1.77.1-.27.01-.54.03-.8.1-.18.05-.34.12-.51.19-.38.16-.76.33-1.15.49-.67.29-1.38.6-1.84,1.17"/>
  <path class="st2" d="M96.16,64.1c-.36-.05-.72.1-1.06.23-.59.23-1.2.39-1.83.49"/>
  <path class="st2" d="M92.78,65.42c-1.56.09-3.06-.53-4.5-1.14-.53-.22-1.07-.45-1.51-.82.31.07.62.15.93.17.26.01.53,0,.79-.01,1.59-.03,3.1.67,4.5,1.43.02,0,.03.02.03.04s-.04,0-.03,0"/>
  <path class="st2" d="M89.11,64.08c.47.06.89.15,1.32.35.46.22,1,.25,1.47.44-.02,0-.04-.02-.06-.02"/>
  <path class="st2" d="M91.18,74.88c-.13.57-.21,1.15-.24,1.73-.02.49-.02,1-.2,1.46"/>
  <path class="st2" d="M91.26,77.93c.28-1.06.52-2.13.72-3.22-.05,1.06-.16,2.23-.38,3.27"/>
</svg>